<svg xmlns="http://www.w3.org/2000/svg" xmlns:xlink="http://www.w3.org/1999/xlink" width="500" zoomAndPan="magnify" viewBox="0 0 375 374.999991" height="500" preserveAspectRatio="xMidYMid meet" version="1.0"><defs><g/><clipPath id="44812acc43"><path d="M 81.160156 94.617188 L 295.660156 94.617188 L 295.660156 280.617188 L 81.160156 280.617188 Z M 81.160156 94.617188 " clip-rule="nonzero"/></clipPath><clipPath id="148eb796d6"><path d="M 122 166 L 255 166 L 255 280.617188 L 122 280.617188 Z M 122 166 " clip-rule="nonzero"/></clipPath><clipPath id="272a8f8702"><path d="M 68.527344 204.960938 L 306.472656 204.960938 L 306.472656 240.078125 L 68.527344 240.078125 Z M 68.527344 204.960938 " clip-rule="nonzero"/></clipPath></defs><rect x="-37.5" width="450" fill="#ffffff" y="-37.499999" height="449.999989" fill-opacity="1"/><rect x="-37.5" width="450" fill="#ffffff" y="-37.499999" height="449.999989" fill-opacity="1"/><g clip-path="url(#44812acc43)"><path fill="#000000" d="M 188.25 137.28125 L 270.769531 280.203125 L 295.328125 280.203125 L 188.25 94.746094 L 81.175781 280.203125 L 105.734375 280.203125 L 188.25 137.28125 " fill-opacity="1" fill-rule="nonzero"/></g><g clip-path="url(#148eb796d6)"><path fill="#000000" d="M 188.25 208.554688 L 229.621094 280.203125 L 254.175781 280.203125 L 188.25 166.019531 L 122.328125 280.203125 L 146.882812 280.203125 L 188.25 208.554688 " fill-opacity="1" fill-rule="nonzero"/></g><g clip-path="url(#272a8f8702)"><path fill="#000000" d="M 68.527344 204.960938 L 306.527344 204.960938 L 306.527344 240.078125 L 68.527344 240.078125 Z M 68.527344 204.960938 " fill-opacity="1" fill-rule="nonzero"/></g><g fill="#ffffff" fill-opacity="1"><g transform="translate(112.908233, 231.887022)"><g><path d="M 13.578125 -3.9375 L 4.765625 -3.9375 L 3.09375 0 L 0.03125 0 L 7.734375 -17.484375 L 10.765625 -17.484375 L 18.40625 0 L 15.25 0 Z M 12.453125 -6.5625 L 9.15625 -14.328125 L 5.875 -6.5625 Z M 12.453125 -6.5625 "/></g></g></g><g fill="#ffffff" fill-opacity="1"><g transform="translate(142.345825, 231.887022)"><g><path d="M 2.296875 -17.484375 L 9.46875 -17.484375 C 12.082031 -17.484375 14.238281 -16.65625 15.9375 -15 C 17.644531 -13.351562 18.5 -11.265625 18.5 -8.734375 C 18.5 -6.203125 17.640625 -4.113281 15.921875 -2.46875 C 14.210938 -0.820312 12.035156 0 9.390625 0 L 2.296875 0 Z M 5.25 -14.828125 L 5.25 -2.640625 L 9.53125 -2.640625 C 11.25 -2.640625 12.675781 -3.207031 13.8125 -4.34375 C 14.957031 -5.488281 15.53125 -6.941406 15.53125 -8.703125 C 15.53125 -10.472656 14.941406 -11.9375 13.765625 -13.09375 C 12.597656 -14.25 11.144531 -14.828125 9.40625 -14.828125 Z M 5.25 -14.828125 "/></g></g></g><g fill="#ffffff" fill-opacity="1"><g transform="translate(172.707188, 231.887022)"><g><path d="M 5.25 0 L 2.296875 0 L 2.296875 -17.484375 L 5.25 -17.484375 Z M 5.25 0 "/></g></g></g><g fill="#ffffff" fill-opacity="1"><g transform="translate(191.259162, 231.887022)"><g><path d="M 14.234375 -14.828125 L 8.6875 -14.828125 L 8.6875 0 L 5.75 0 L 5.75 -14.828125 L 0.21875 -14.828125 L 0.21875 -17.484375 L 14.234375 -17.484375 Z M 14.234375 -14.828125 "/></g></g></g><g fill="#ffffff" fill-opacity="1"><g transform="translate(216.726999, 231.887022)"><g><path d="M 9.46875 -5.8125 L 9.46875 0 L 6.546875 0 L 6.546875 -5.71875 L 0.03125 -17.484375 L 3 -17.484375 L 7.984375 -8.96875 L 12.890625 -17.484375 L 15.875 -17.484375 Z M 9.46875 -5.8125 "/></g></g></g><g fill="#ffffff" fill-opacity="1"><g transform="translate(243.642923, 231.887022)"><g><path d="M 13.578125 -3.9375 L 4.765625 -3.9375 L 3.09375 0 L 0.03125 0 L 7.734375 -17.484375 L 10.765625 -17.484375 L 18.40625 0 L 15.25 0 Z M 12.453125 -6.5625 L 9.15625 -14.328125 L 5.875 -6.5625 Z M 12.453125 -6.5625 "/></g></g></g></svg>