<svg xmlns="http://www.w3.org/2000/svg" xmlns:xlink="http://www.w3.org/1999/xlink" width="500" zoomAndPan="magnify" viewBox="0 0 375 374.999991" height="500" preserveAspectRatio="xMidYMid meet" version="1.0"><defs><clipPath id="25b470f22e"><path d="M 77 68.695312 L 298 68.695312 L 298 306.445312 L 77 306.445312 Z M 77 68.695312 " clip-rule="nonzero"/></clipPath></defs><rect x="-37.5" width="450" fill="#ffffff" y="-37.499999" height="449.999989" fill-opacity="1"/><rect x="-37.5" width="450" fill="#ffffff" y="-37.499999" height="449.999989" fill-opacity="1"/><g clip-path="url(#25b470f22e)"><path fill="#000000" d="M 294.707031 268.261719 L 265.871094 205.628906 C 264.796875 203.300781 262.472656 201.808594 259.910156 201.808594 L 200.671875 201.808594 C 198.671875 201.808594 197.335938 199.75 198.152344 197.921875 L 212.257812 166.46875 C 213.234375 164.289062 216.316406 164.296875 217.289062 166.46875 L 220.40625 173.476562 C 220.949219 174.691406 222.152344 175.472656 223.484375 175.472656 L 246.976562 175.472656 C 249.421875 175.472656 251.054688 172.945312 250.042969 170.71875 L 227.226562 120.28125 C 226.78125 119.296875 225.796875 118.667969 224.714844 118.667969 L 205.257812 118.667969 C 204.171875 118.667969 203.195312 119.296875 202.746094 120.28125 L 139.746094 259.515625 C 138.921875 261.339844 140.253906 263.402344 142.257812 263.402344 L 167.078125 263.402344 C 168.160156 263.402344 169.148438 262.765625 169.589844 261.78125 L 183.464844 230.855469 C 183.90625 229.863281 184.890625 229.226562 185.980469 229.226562 L 243.398438 229.226562 C 244.492188 229.226562 245.484375 229.863281 245.925781 230.863281 L 264.035156 270.746094 C 265.433594 273.832031 263.179688 277.332031 259.792969 277.332031 L 115.320312 277.332031 C 111.921875 277.332031 109.667969 273.8125 111.085938 270.726562 L 188.257812 103.105469 C 189.789062 99.777344 193.121094 97.644531 196.785156 97.644531 L 215.574219 97.644531 C 219.390625 97.644531 222.488281 94.546875 222.488281 90.730469 L 222.488281 75.601562 C 222.488281 71.78125 219.390625 68.683594 215.574219 68.683594 L 189.46875 68.683594 C 178.984375 68.683594 169.378906 74.839844 165 84.367188 L 85.554688 257.257812 L 80.542969 267.730469 C 76.519531 276.125 77.085938 285.835938 82.042969 293.714844 C 87 301.582031 95.523438 306.289062 104.824219 306.289062 L 270.171875 306.289062 C 279.355469 306.289062 287.820312 301.675781 292.800781 293.960938 C 297.78125 286.238281 298.492188 276.628906 294.707031 268.261719 " fill-opacity="1" fill-rule="nonzero"/></g></svg>